PathFileType	4	(X/Y/Z)	D:\Share\Shared_Data\Ergonomics\Sit To Stand Pertubation\S1\Perturbed_NoHarness.trc
DataRate	CameraRate	NumFrames	NumMarkers	Units	OrigDataRate	OrigDataStartFrame	OrigNumFrames	
100	100	9	18	m	100	8543	221
Frame#	Time	L_ASIS			R_ASIS			R_Pelvis			V_Sacral			L_Pelvis			Clavical			R_Acromium			L_Acromium			Sternum			Torso			R_Thigh_Med			R_Thigh_Lat			R_Thigh			R_Shank_Med			R_Shank_Lat			R_Shank			R_Heel			R_Toe			
		X1	Y1	Z1	X2	Y2	Z2	X3	Y3	Z3	X4	Y4	Z4	X5	Y5	Z5	X6	Y6	Z6	X7	Y7	Z7	X8	Y8	Z8	X9	Y9	Z9	X10	Y10	Z10	X11	Y11	Z11	X12	Y12	Z12	X13	Y13	Z13	X14	Y14	Z14	X15	Y15	Z15	X16	Y16	Z16	X17	Y17	Z17	X18	Y18	Z18	

8543	85.42	0.21699855	0.64077264	-0.087179535	0.1056365	0.68060651	0.13621423	0.18369066	0.64051807	0.11233891	-0.0072552443	0.65415692	0.0018571659	0.12635249	0.67212543	-0.13102573	0.42823016	0.87101129	0.012646207	0.42294476	0.97880292	0.15114345	0.3647532	0.97106116	-0.18359047	0.41552905	0.90042401	0.10824096	0.42585446	0.8851239	-0.040912224	0.40299936	0.40313126	0.032830833	0.40628101	0.42321216	0.15400508	0.30514426	0.56490369	0.11321873	0.34914914	0.091136963	0.09585688	0.32427231	0.098760056	0.17562616	0.37606479	0.30432358	0.17724008	0.27163855	0.03241626	0.12500672	0.4775853	0.047670914	0.14091344
8544	85.43	0.22104723	0.64562817	-0.086168709	0.11000695	0.68469897	0.13693954	0.18789468	0.64538763	0.11277657	-0.0028446107	0.65823462	0.0019006497	0.13023759	0.67654395	-0.13109186	0.43004517	0.87864691	0.012702982	0.42336411	0.98628021	0.15160213	0.36542303	0.97792133	-0.18375554	0.41713657	0.90796661	0.1084892	0.42750293	0.89278943	-0.040997162	0.40521042	0.40250821	0.031676765	0.40922205	0.42280542	0.15281366	0.30984442	0.56619019	0.11275136	0.34925784	0.090951813	0.095489502	0.32470831	0.098829681	0.17534875	0.37796143	0.30399734	0.17640027	0.27168951	0.032516006	0.12503357	0.47765613	0.047325943	0.1406859
8545	85.44	0.22502525	0.65078638	-0.085267578	0.11433247	0.68902448	0.13766815	0.19207021	0.65052997	0.11321705	0.00154162	0.66258282	0.0019367253	0.13408035	0.68124103	-0.1312252	0.43168436	0.88669128	0.012777451	0.42352145	0.99414307	0.15203729	0.3658938	0.98515765	-0.18390689	0.41858755	0.91590277	0.10875797	0.42896936	0.90086743	-0.04106707	0.40721835	0.40193137	0.030593138	0.41197708	0.42244208	0.15167715	0.31445407	0.56757507	0.11232092	0.3493436	0.090782486	0.095142227	0.32510959	0.098891106	0.17508595	0.3797106	0.30368008	0.17561241	0.27173196	0.03261129	0.1250631	0.47772266	0.046991638	0.14046623
8546	85.45	0.22894495	0.65622357	-0.084476517	0.11861742	0.69356714	0.13839796	0.19623172	0.65591644	0.11364638	0.0059137297	0.66719446	0.0019763298	0.1378907	0.68619232	-0.13142853	0.43314301	0.8951275	0.012868458	0.4234248	1.0023665	0.15245062	0.36616608	0.99274011	-0.18404868	0.41988647	0.92420923	0.10904562	0.43025571	0.90933282	-0.041121983	0.40903488	0.40140302	0.029591032	0.41455222	0.42212213	0.15060817	0.31897385	0.56904266	0.11193052	0.3494111	0.090629158	0.09481662	0.32547739	0.098943604	0.17483875	0.38131598	0.30337299	0.17488425	0.27176688	0.03269812	0.12509072	0.47778241	0.046672203	0.14025833
8547	85.46	0.23282066	0.66191492	-0.083793701	0.12286745	0.69831171	0.13912637	0.2003956	0.66151642	0.11404839	0.010282302	0.67206036	0.0020285065	0.14167995	0.69137219	-0.13169789	0.43441693	0.90393719	0.012973682	0.42308514	1.0109238	0.15284529	0.36624036	1.0006376	-0.18418608	0.42103687	0.93286011	0.10934935	0.4313645	0.91815912	-0.041162502	0.41067282	0.40092496	0.028678745	0.41695392	0.42184528	0.14961697	0.32340436	0.5705755	0.11158099	0.34946454	0.090491844	0.094513977	0.32581271	0.098986755	0.17460814	0.38278152	0.30307706	0.17422189	0.2717952	0.032774242	0.12511347	0.47783313	0.046371796	0.14006566
8548	85.47	0.23666806	0.66783533	-0.083215576	0.12708938	0.70324261	0.13985001	0.20457916	0.66729877	0.11440556	0.014657827	0.67716895	0.002099478	0.14546063	0.6967547	-0.13202185	0.43550299	0.91310004	0.013089822	0.42251666	1.019785	0.15322546	0.36611734	1.0088183	-0.1843253	0.42204178	0.94182819	0.10966528	0.43229926	0.92731805	-0.041189762	0.41214526	0.40049866	0.02786161	0.41918842	0.42161096	0.1487113	0.32774649	0.57215503	0.1112707	0.34950745	0.090370384	0.094235481	0.32611655	0.0990205	0.17439502	0.38411124	0.3027937	0.17362976	0.2718179	0.032838776	0.12512982	0.47787296	0.046094196	0.13989088
8549	85.48	0.24050325	0.67396008	-0.082737274	0.13129088	0.70834509	0.14056447	0.20879988	0.67323315	0.1147001	0.019050343	0.68250659	0.0021921735	0.14924651	0.70231409	-0.13238109	0.43640002	0.92259314	0.01321284	0.42173669	1.0289194	0.15359546	0.36579849	1.0172497	-0.18447336	0.42290366	0.95108392	0.10998861	0.43306433	0.93677979	-0.041205338	0.41346426	0.40012515	0.027141993	0.42126129	0.42141843	0.14789624	0.33200089	0.5737627	0.1109955	0.3495426	0.09026445	0.093982071	0.32638959	0.099045181	0.17420016	0.38530875	0.30252451	0.17311035	0.27183597	0.032891834	0.12513934	0.47790073	0.045842472	0.13973587
8550	85.49	0.24434174	0.68026569	-0.082352913	0.13548036	0.7136048	0.14126443	0.21307423	0.67929108	0.11491545	0.023469145	0.6880575	0.0023062043	0.153052	0.70802582	-0.13274919	0.43710916	0.93239032	0.013338272	0.42076505	1.0382939	0.1539592	0.36528653	1.0258994	-0.18463762	0.42362469	0.96059631	0.11031391	0.43366541	0.9465127	-0.041211159	0.41464029	0.39980515	0.026519463	0.42317712	0.42126691	0.14717397	0.33616837	0.57538086	0.11074873	0.34957175	0.090173592	0.093754417	0.32663248	0.099061447	0.17402417	0.3863772	0.30227124	0.17266443	0.27185019	0.032934216	0.12514247	0.47791571	0.045618774	0.13960159
8551	85.5	0.2481978	0.68672986	-0.082055939	0.13966666	0.71900763	0.14194377	0.2174162	0.68544781	0.11503801	0.027922537	0.69380475	0.0024382036	0.15689203	0.71386713	-0.13309402	0.43763452	0.9424624	0.013461562	0.41962347	1.0478745	0.15431973	0.36458545	1.0347351	-0.18482549	0.42420688	0.97033313	0.11063556	0.43410904	0.9564837	-0.041209389	0.41568118	0.39953906	0.025991125	0.42493939	0.42115591	0.14654407	0.34025009	0.57699365	0.11052129	0.34959601	0.090097305	0.093552963	0.32684564	0.099070328	0.17386757	0.38731912	0.30203598	0.17229112	0.27186127	0.032967064	0.12514024	0.47791803	0.04542424	0.13948807
